<?xml version="1.0" encoding="utf-8"?>
<!-- Generator: Adobe Illustrator 28.0.0, SVG Export Plug-In . SVG Version: 6.00 Build 0)  -->
<svg version="1.1" id="图层_1" xmlns="http://www.w3.org/2000/svg" xmlns:xlink="http://www.w3.org/1999/xlink" x="0px" y="0px"
	 viewBox="0 0 2000 2000" style="enable-background:new 0 0 2000 2000;" xml:space="preserve">
<style type="text/css">
	.st0{fill:#1986B7;}
	.st1{fill:#1A9FCB;}
</style>
<g>
	<g>
		<g>
			<g>
				<path class="st0" d="M1423.94,1292.09c-118.23-61.09-237.57-52.01-357.85-6.59c-67.77,25.59-135.04,53.04-204.17,74.36
					c-90.79,28.01-181.45,29.05-267.99-18.83c-104.74-57.95-152.51-194.32-106.85-306.57c43.86-107.81,174.21-175.24,282.26-146.01
					c66.44,17.97,119.24,73.55,125.19,135.65c6.73,70.21-8.33,132.56-74.51,171.4c-36.74,21.56-85.52,24.13-123.16,3.3
					c-41.23-22.81-58.57-71.83-37.17-114.91c1.7-3.42,3.52-6.79,5.39-10.12l0.99,24.44c-0.88,40.51,13.32,63.49,44.93,73.39
					c39.43,12.35,90.47-6.99,110.08-44.23c22.41-42.57,23.51-86.77-5.58-126.28c-27.59-37.47-67.55-49.4-113.24-41.01
					c-51.44,9.45-92.68,36.14-121.45,79.06c-67.81,101.15,5.55,235.54,124.8,252.67c83.73,12.02,161.76-11.55,240.59-34.17
					c65.52-18.8,131.47-37.92,198.52-49.18c82.58-13.88,160.84,1.77,232.81,42.07c15.52,8.69,29.19,20.35,40.39,34.18
					L1423.94,1292.09z"/>
				<path class="st0" d="M504.71,1298.45c15.48,13.24,31.04,26.39,46.41,39.75c71.94,62.5,156.66,81.92,246.43,58.64
					c90.79-23.55,179.35-56.21,267.98-87.46c94.55-33.33,189.13-53.9,287.75-19.01c57.93,20.49,105.8,54.09,145.53,113.95
					c-15.06-5.12-22.14-6.69-28.46-9.81c-99.89-49.25-200.44-48.55-303.33-8.27c-91.29,35.74-182.91,71.26-276.33,100.75
					c-57.03,18-117.46,21.12-177.87,8C604.76,1471.52,536.84,1405.33,504.71,1298.45z"/>
			</g>
		</g>
	</g>
	<path class="st1" d="M1012.92,1133.8c16.51,5.97,38.48,15.83,48.87,18.79c49.73,14.17,102.84,18.84,153.84,8.96
		c127.89-24.79,273.18-170.2,242.27-311.38c-11-50.22-44.08-93.16-100.41-84.97c-89.45,13.02-120.36,91.17-138.08,166.71
		c-28.15,120.03-104.17,179.22-221.61,195.83L1012.92,1133.8z M1355.9,873.69c-9.57,5.05-21.42,1.39-26.47-8.18
		c-5.05-9.57-1.39-21.42,8.18-26.47c9.57-5.05,21.42-1.39,26.47,8.18S1365.47,868.64,1355.9,873.69z"/>
	<polygon class="st1" points="1248.63,714.33 907.45,517.35 907.45,911.31 	"/>
</g>
</svg>
